# xmcd
#
# Track frame offsets:
#	150
#	13200
#	20187
#	29682
#	38767
#	48592
#	59587
#	72540
#	82707
#	92067
#	104612
#	118940
#	135792
#	149142
#	159190
#	176442
#	186527
#	199370
#	214970
#	229452
#
# Disc length: 3222 seconds
#
# Revision: 0
# Processed by: cddbd v1.5PL3 Copyright (c) Steve Scherf et al.
# Submitted via: dBpowerAMP V4.0
#
DISCID=360c9414
DTITLE=Various Artist - The Essential Earl Scruggs
DYEAR=1900
DGENRE=Country
TTITLE0=John Henry (live) - Earl Scruggs with Hylo Brown and the Timberliners
TTITLE1=Cumberland Gap (live) - Earl Scruggs with Hylo Brown and the Timberliners
TTITLE2=Cripple Creek - Lester Flatt Earl Scruggs and The Foggy Mountain Boys
TTITLE3=Reuben - Lester Flatt Earl Scruggs and The Foggy Mountain Boys
TTITLE4=Sally Goodwin - Lester Flatt Earl Scruggs and The Foggy Mountain Boys
TTITLE5=Foggy Mountain Top - Lester Flatt Earl Scruggs and The Foggy Mountain Boys
TTITLE6=Georgia Buck - Lester Flatt Earl Scruggs and The Foggy Mountain Boys
TTITLE7=John Hardy Was A Desperate Little Man - Lester Flatt Earl Scruggs and The Foggy Mountain Boys
TTITLE8=The Ballad of Jed Clampett - Lester Flatt Earl Scruggs and The Foggy Mountain Boys
TTITLE9=Nashville Skyline Rag - Lester Flatt Earl Scruggs and The Foggy Mountain Boys
TTITLE10=Nashville Blues - Earl Scruggs with Nitty Gritty Dirt Band
TTITLE11=I Saw The Light - Earl Scruggs
TTITLE12=Some Of Shelley's Blues - Earl Scruggs Revue
TTITLE13=Peking Fling - Earl Scruggs
TTITLE14=I Shall Be Released - Earl Scruggs Revue
TTITLE15=Stash It - Earl Scruggs Revue
TTITLE16=Song Of The South - Earl Scruggs and Tom T Hall
TTITLE17=I Still Miss Someone - Earl Scruggs Revue
TTITLE18=We'll Meet Again Sweetheart - Earl Scruggs
TTITLE19=American-Made World-Played - Earl Scruggs
EXTD=
EXTT0=
EXTT1=
EXTT2=
EXTT3=
EXTT4=
EXTT5=
EXTT6=
EXTT7=
EXTT8=
EXTT9=
EXTT10=
EXTT11=
EXTT12=
EXTT13=
EXTT14=
EXTT15=
EXTT16=
EXTT17=
EXTT18=
EXTT19=
PLAYORDER=
